<?xml version="1.0" encoding="UTF-8" standalone="no"?>
<!DOCTYPE svg PUBLIC "-//W3C//DTD SVG 1.1//EN"
 "http://www.w3.org/Graphics/SVG/1.1/DTD/svg11.dtd">
<!-- Generated by graphviz version 2.43.0 (0)
 -->
<!-- Title: G Pages: 1 -->
<svg width="1296pt" height="1714pt"
 viewBox="0.00 0.00 1296.24 1714.21" xmlns="http://www.w3.org/2000/svg" xmlns:xlink="http://www.w3.org/1999/xlink">
<g id="graph0" class="graph" transform="scale(1 1) rotate(0) translate(4 1710.21)">
<title>G</title>
<polygon fill="white" stroke="transparent" points="-4,4 -4,-1710.21 1292.24,-1710.21 1292.24,4 -4,4"/>
<g id="clust1" class="cluster">
<title>cluster_Global</title>
<path fill="none" stroke="gray" d="M200.39,-172.21C200.39,-172.21 1268.24,-172.21 1268.24,-172.21 1274.24,-172.21 1280.24,-178.21 1280.24,-184.21 1280.24,-184.21 1280.24,-1686.21 1280.24,-1686.21 1280.24,-1692.21 1274.24,-1698.21 1268.24,-1698.21 1268.24,-1698.21 200.39,-1698.21 200.39,-1698.21 194.39,-1698.21 188.39,-1692.21 188.39,-1686.21 188.39,-1686.21 188.39,-184.21 188.39,-184.21 188.39,-178.21 194.39,-172.21 200.39,-172.21"/>
<text text-anchor="middle" x="734.31" y="-1685.41" font-family="Times,serif" font-size="11.00" fill="gray">Global</text>
</g>
<g id="clust2" class="cluster">
<title>cluster_\GeoIp2</title>
<path fill="none" stroke="gray" d="M208.39,-440.21C208.39,-440.21 1248.74,-440.21 1248.74,-440.21 1254.74,-440.21 1260.74,-446.21 1260.74,-452.21 1260.74,-452.21 1260.74,-1658.21 1260.74,-1658.21 1260.74,-1664.21 1254.74,-1670.21 1248.74,-1670.21 1248.74,-1670.21 208.39,-1670.21 208.39,-1670.21 202.39,-1670.21 196.39,-1664.21 196.39,-1658.21 196.39,-1658.21 196.39,-452.21 196.39,-452.21 196.39,-446.21 202.39,-440.21 208.39,-440.21"/>
<text text-anchor="middle" x="728.56" y="-1657.41" font-family="Times,serif" font-size="11.00" fill="gray">GeoIp2</text>
</g>
<g id="clust3" class="cluster">
<title>cluster_\GeoIp2\Model</title>
<path fill="none" stroke="gray" d="M216.39,-1300.21C216.39,-1300.21 1196.74,-1300.21 1196.74,-1300.21 1202.74,-1300.21 1208.74,-1306.21 1208.74,-1312.21 1208.74,-1312.21 1208.74,-1630.21 1208.74,-1630.21 1208.74,-1636.21 1202.74,-1642.21 1196.74,-1642.21 1196.74,-1642.21 216.39,-1642.21 216.39,-1642.21 210.39,-1642.21 204.39,-1636.21 204.39,-1630.21 204.39,-1630.21 204.39,-1312.21 204.39,-1312.21 204.39,-1306.21 210.39,-1300.21 216.39,-1300.21"/>
<text text-anchor="middle" x="706.56" y="-1629.41" font-family="Times,serif" font-size="11.00" fill="gray">Model</text>
</g>
<g id="clust4" class="cluster">
<title>cluster_\GeoIp2\Record</title>
<path fill="none" stroke="gray" d="M844.45,-654.21C844.45,-654.21 1223.74,-654.21 1223.74,-654.21 1229.74,-654.21 1235.74,-660.21 1235.74,-666.21 1235.74,-666.21 1235.74,-1038.21 1235.74,-1038.21 1235.74,-1044.21 1229.74,-1050.21 1223.74,-1050.21 1223.74,-1050.21 844.45,-1050.21 844.45,-1050.21 838.45,-1050.21 832.45,-1044.21 832.45,-1038.21 832.45,-1038.21 832.45,-666.21 832.45,-666.21 832.45,-660.21 838.45,-654.21 844.45,-654.21"/>
<text text-anchor="middle" x="1034.1" y="-1037.41" font-family="Times,serif" font-size="11.00" fill="gray">Record</text>
</g>
<g id="clust5" class="cluster">
<title>cluster_\GeoIp2\WebService</title>
<path fill="none" stroke="gray" d="M1134.24,-574.21C1134.24,-574.21 1183.24,-574.21 1183.24,-574.21 1189.24,-574.21 1195.24,-580.21 1195.24,-586.21 1195.24,-586.21 1195.24,-634.21 1195.24,-634.21 1195.24,-640.21 1189.24,-646.21 1183.24,-646.21 1183.24,-646.21 1134.24,-646.21 1134.24,-646.21 1128.24,-646.21 1122.24,-640.21 1122.24,-634.21 1122.24,-634.21 1122.24,-586.21 1122.24,-586.21 1122.24,-580.21 1128.24,-574.21 1134.24,-574.21"/>
<text text-anchor="middle" x="1158.74" y="-633.41" font-family="Times,serif" font-size="11.00" fill="gray">WebService</text>
</g>
<g id="clust6" class="cluster">
<title>cluster_\GeoIp2\Exception</title>
<path fill="none" stroke="gray" d="M477.02,-1058.21C477.02,-1058.21 1240.74,-1058.21 1240.74,-1058.21 1246.74,-1058.21 1252.74,-1064.21 1252.74,-1070.21 1252.74,-1070.21 1252.74,-1280.21 1252.74,-1280.21 1252.74,-1286.21 1246.74,-1292.21 1240.74,-1292.21 1240.74,-1292.21 477.02,-1292.21 477.02,-1292.21 471.02,-1292.21 465.02,-1286.21 465.02,-1280.21 465.02,-1280.21 465.02,-1070.21 465.02,-1070.21 465.02,-1064.21 471.02,-1058.21 477.02,-1058.21"/>
<text text-anchor="middle" x="858.88" y="-1279.41" font-family="Times,serif" font-size="11.00" fill="gray">Exception</text>
</g>
<g id="clust7" class="cluster">
<title>cluster_\GeoIp2\Database</title>
<path fill="none" stroke="gray" d="M1134.24,-494.21C1134.24,-494.21 1183.24,-494.21 1183.24,-494.21 1189.24,-494.21 1195.24,-500.21 1195.24,-506.21 1195.24,-506.21 1195.24,-554.21 1195.24,-554.21 1195.24,-560.21 1189.24,-566.21 1183.24,-566.21 1183.24,-566.21 1134.24,-566.21 1134.24,-566.21 1128.24,-566.21 1122.24,-560.21 1122.24,-554.21 1122.24,-554.21 1122.24,-506.21 1122.24,-506.21 1122.24,-500.21 1128.24,-494.21 1134.24,-494.21"/>
<text text-anchor="middle" x="1158.74" y="-553.41" font-family="Times,serif" font-size="11.00" fill="gray">Database</text>
</g>
<g id="clust8" class="cluster">
<title>cluster_\MaxMind</title>
<path fill="none" stroke="gray" d="M1057.24,-180.21C1057.24,-180.21 1260.24,-180.21 1260.24,-180.21 1266.24,-180.21 1272.24,-186.21 1272.24,-192.21 1272.24,-192.21 1272.24,-420.21 1272.24,-420.21 1272.24,-426.21 1266.24,-432.21 1260.24,-432.21 1260.24,-432.21 1057.24,-432.21 1057.24,-432.21 1051.24,-432.21 1045.24,-426.21 1045.24,-420.21 1045.24,-420.21 1045.24,-192.21 1045.24,-192.21 1045.24,-186.21 1051.24,-180.21 1057.24,-180.21"/>
<text text-anchor="middle" x="1158.74" y="-419.41" font-family="Times,serif" font-size="11.00" fill="gray">MaxMind</text>
</g>
<g id="clust9" class="cluster">
<title>cluster_\MaxMind\Db</title>
<path fill="none" stroke="gray" d="M1065.24,-188.21C1065.24,-188.21 1252.24,-188.21 1252.24,-188.21 1258.24,-188.21 1264.24,-194.21 1264.24,-200.21 1264.24,-200.21 1264.24,-392.21 1264.24,-392.21 1264.24,-398.21 1258.24,-404.21 1252.24,-404.21 1252.24,-404.21 1065.24,-404.21 1065.24,-404.21 1059.24,-404.21 1053.24,-398.21 1053.24,-392.21 1053.24,-392.21 1053.24,-200.21 1053.24,-200.21 1053.24,-194.21 1059.24,-188.21 1065.24,-188.21"/>
<text text-anchor="middle" x="1158.74" y="-391.41" font-family="Times,serif" font-size="11.00" fill="gray">Db</text>
</g>
<g id="clust10" class="cluster">
<title>cluster_\MaxMind\Db\Reader</title>
<path fill="none" stroke="gray" d="M1073.24,-196.21C1073.24,-196.21 1244.24,-196.21 1244.24,-196.21 1250.24,-196.21 1256.24,-202.21 1256.24,-208.21 1256.24,-208.21 1256.24,-364.21 1256.24,-364.21 1256.24,-370.21 1250.24,-376.21 1244.24,-376.21 1244.24,-376.21 1073.24,-376.21 1073.24,-376.21 1067.24,-376.21 1061.24,-370.21 1061.24,-364.21 1061.24,-364.21 1061.24,-208.21 1061.24,-208.21 1061.24,-202.21 1067.24,-196.21 1073.24,-196.21"/>
<text text-anchor="middle" x="1158.74" y="-363.41" font-family="Times,serif" font-size="11.00" fill="gray">Reader</text>
</g>
<!-- \\GeoIp2\\Model\\Isp -->
<g id="node1" class="node">
<title>\\GeoIp2\\Model\\Isp</title>
<polygon fill="none" stroke="black" points="559.02,-1614.21 505.02,-1614.21 505.02,-1578.21 559.02,-1578.21 559.02,-1614.21"/>
<text text-anchor="middle" x="532.02" y="-1593.41" font-family="Courier,monospace" font-size="11.00">Isp</text>
</g>
<!-- \\GeoIp2\\Model\\AbstractModel -->
<g id="node5" class="node">
<title>\\GeoIp2\\Model\\AbstractModel</title>
<polygon fill="none" stroke="black" points="316.39,-1479.21 212.39,-1479.21 212.39,-1443.21 316.39,-1443.21 316.39,-1479.21"/>
<text text-anchor="start" x="230.39" y="-1464.41" font-family="Courier,monospace" font-size="11.00">«abstract»</text>
<text text-anchor="start" x="220.39" y="-1452.41" font-family="Courier,monospace" font-size="11.00">AbstractModel</text>
</g>
<!-- \\GeoIp2\\Model\\Isp&#45;&gt;\\GeoIp2\\Model\\AbstractModel -->
<g id="edge1" class="edge">
<title>\\GeoIp2\\Model\\Isp&#45;&gt;\\GeoIp2\\Model\\AbstractModel</title>
<path fill="none" stroke="black" d="M505.01,-1595.38C475.39,-1593.53 426.22,-1587.66 388.39,-1569.21 347.59,-1549.31 309.83,-1512.21 287.19,-1487.11"/>
<polygon fill="none" stroke="black" points="289.63,-1484.59 280.38,-1479.42 284.39,-1489.23 289.63,-1484.59"/>
</g>
<!-- \\GeoIp2\\Model\\ConnectionType -->
<g id="node2" class="node">
<title>\\GeoIp2\\Model\\ConnectionType</title>
<polygon fill="none" stroke="black" points="587.52,-1560.21 476.52,-1560.21 476.52,-1524.21 587.52,-1524.21 587.52,-1560.21"/>
<text text-anchor="middle" x="532.02" y="-1539.41" font-family="Courier,monospace" font-size="11.00">ConnectionType</text>
</g>
<!-- \\GeoIp2\\Model\\ConnectionType&#45;&gt;\\GeoIp2\\Model\\AbstractModel -->
<g id="edge2" class="edge">
<title>\\GeoIp2\\Model\\ConnectionType&#45;&gt;\\GeoIp2\\Model\\AbstractModel</title>
<path fill="none" stroke="black" d="M476.47,-1534.86C449.6,-1530.49 416.92,-1524.05 388.39,-1515.21 361.56,-1506.9 332.76,-1494.46 309.78,-1483.62"/>
<polygon fill="none" stroke="black" points="311.16,-1480.4 300.63,-1479.24 308.14,-1486.71 311.16,-1480.4"/>
</g>
<!-- \\GeoIp2\\Model\\City -->
<g id="node3" class="node">
<title>\\GeoIp2\\Model\\City</title>
<polygon fill="none" stroke="black" points="899.45,-1344.21 845.45,-1344.21 845.45,-1308.21 899.45,-1308.21 899.45,-1344.21"/>
<text text-anchor="middle" x="872.45" y="-1323.41" font-family="Courier,monospace" font-size="11.00">City</text>
</g>
<!-- \\GeoIp2\\Model\\Country -->
<g id="node9" class="node">
<title>\\GeoIp2\\Model\\Country</title>
<polygon fill="none" stroke="black" points="564.02,-1344.21 500.02,-1344.21 500.02,-1308.21 564.02,-1308.21 564.02,-1344.21"/>
<text text-anchor="middle" x="532.02" y="-1323.41" font-family="Courier,monospace" font-size="11.00">Country</text>
</g>
<!-- \\GeoIp2\\Model\\City&#45;&gt;\\GeoIp2\\Model\\Country -->
<g id="edge3" class="edge">
<title>\\GeoIp2\\Model\\City&#45;&gt;\\GeoIp2\\Model\\Country</title>
<path fill="none" stroke="black" d="M845.18,-1326.21C786.68,-1326.21 645.31,-1326.21 574.66,-1326.21"/>
<polygon fill="none" stroke="black" points="574.36,-1322.71 564.36,-1326.21 574.36,-1329.71 574.36,-1322.71"/>
</g>
<!-- \\GeoIp2\\Model\\AnonymousIp -->
<g id="node4" class="node">
<title>\\GeoIp2\\Model\\AnonymousIp</title>
<polygon fill="none" stroke="black" points="577.52,-1506.21 486.52,-1506.21 486.52,-1470.21 577.52,-1470.21 577.52,-1506.21"/>
<text text-anchor="middle" x="532.02" y="-1485.41" font-family="Courier,monospace" font-size="11.00">AnonymousIp</text>
</g>
<!-- \\GeoIp2\\Model\\AnonymousIp&#45;&gt;\\GeoIp2\\Model\\AbstractModel -->
<g id="edge4" class="edge">
<title>\\GeoIp2\\Model\\AnonymousIp&#45;&gt;\\GeoIp2\\Model\\AbstractModel</title>
<path fill="none" stroke="black" d="M486.26,-1483.66C442.5,-1479.21 375.54,-1472.41 326.81,-1467.45"/>
<polygon fill="none" stroke="black" points="327.01,-1463.96 316.7,-1466.43 326.3,-1470.92 327.01,-1463.96"/>
</g>
<!-- \\JsonSerializable -->
<g id="node32" class="node">
<title>\\JsonSerializable</title>
<ellipse fill="none" stroke="black" cx="70.19" cy="-1461.21" rx="70.39" ry="18"/>
<text text-anchor="middle" x="70.19" y="-1457.51" font-family="Times,serif" font-size="14.00" fill="gray">\JsonSerializable</text>
</g>
<!-- \\GeoIp2\\Model\\AbstractModel&#45;&gt;\\JsonSerializable -->
<g id="edge5" class="edge">
<title>\\GeoIp2\\Model\\AbstractModel&#45;&gt;\\JsonSerializable</title>
<path fill="none" stroke="black" stroke-dasharray="1,5" d="M212.14,-1461.21C193.31,-1461.21 171.52,-1461.21 150.79,-1461.21"/>
<polygon fill="none" stroke="black" points="150.72,-1457.71 140.72,-1461.21 150.72,-1464.71 150.72,-1457.71"/>
</g>
<!-- \\GeoIp2\\Model\\Asn -->
<g id="node6" class="node">
<title>\\GeoIp2\\Model\\Asn</title>
<polygon fill="none" stroke="black" points="559.02,-1452.21 505.02,-1452.21 505.02,-1416.21 559.02,-1416.21 559.02,-1452.21"/>
<text text-anchor="middle" x="532.02" y="-1431.41" font-family="Courier,monospace" font-size="11.00">Asn</text>
</g>
<!-- \\GeoIp2\\Model\\Asn&#45;&gt;\\GeoIp2\\Model\\AbstractModel -->
<g id="edge6" class="edge">
<title>\\GeoIp2\\Model\\Asn&#45;&gt;\\GeoIp2\\Model\\AbstractModel</title>
<path fill="none" stroke="black" d="M504.58,-1436.9C463.44,-1441.08 383.01,-1449.26 326.82,-1454.97"/>
<polygon fill="none" stroke="black" points="326.22,-1451.51 316.63,-1456 326.93,-1458.47 326.22,-1451.51"/>
</g>
<!-- \\GeoIp2\\Model\\Insights -->
<g id="node7" class="node">
<title>\\GeoIp2\\Model\\Insights</title>
<polygon fill="none" stroke="black" points="1194.24,-1398.21 1123.24,-1398.21 1123.24,-1362.21 1194.24,-1362.21 1194.24,-1398.21"/>
<text text-anchor="middle" x="1158.74" y="-1377.41" font-family="Courier,monospace" font-size="11.00">Insights</text>
</g>
<!-- \\GeoIp2\\Model\\Insights&#45;&gt;\\GeoIp2\\Model\\City -->
<g id="edge7" class="edge">
<title>\\GeoIp2\\Model\\Insights&#45;&gt;\\GeoIp2\\Model\\City</title>
<path fill="none" stroke="black" d="M1123.16,-1373.64C1069.09,-1363.37 964.99,-1343.6 909.82,-1333.12"/>
<polygon fill="none" stroke="black" points="910.27,-1329.64 899.8,-1331.22 908.97,-1336.52 910.27,-1329.64"/>
</g>
<!-- \\GeoIp2\\Model\\Domain -->
<g id="node8" class="node">
<title>\\GeoIp2\\Model\\Domain</title>
<polygon fill="none" stroke="black" points="560.52,-1398.21 503.52,-1398.21 503.52,-1362.21 560.52,-1362.21 560.52,-1398.21"/>
<text text-anchor="middle" x="532.02" y="-1377.41" font-family="Courier,monospace" font-size="11.00">Domain</text>
</g>
<!-- \\GeoIp2\\Model\\Domain&#45;&gt;\\GeoIp2\\Model\\AbstractModel -->
<g id="edge8" class="edge">
<title>\\GeoIp2\\Model\\Domain&#45;&gt;\\GeoIp2\\Model\\AbstractModel</title>
<path fill="none" stroke="black" d="M503.5,-1383.54C474.44,-1387.48 427.51,-1395.09 388.39,-1407.21 361.56,-1415.52 332.76,-1427.96 309.78,-1438.81"/>
<polygon fill="none" stroke="black" points="308.14,-1435.71 300.63,-1443.18 311.16,-1442.02 308.14,-1435.71"/>
</g>
<!-- \\GeoIp2\\Model\\Country&#45;&gt;\\GeoIp2\\Model\\AbstractModel -->
<g id="edge9" class="edge">
<title>\\GeoIp2\\Model\\Country&#45;&gt;\\GeoIp2\\Model\\AbstractModel</title>
<path fill="none" stroke="black" d="M499.77,-1327.4C469.83,-1329.6 424.06,-1335.81 388.39,-1353.21 347.59,-1373.11 309.83,-1410.22 287.19,-1435.31"/>
<polygon fill="none" stroke="black" points="284.39,-1433.2 280.38,-1443 289.63,-1437.83 284.39,-1433.2"/>
</g>
<!-- \\GeoIp2\\Model\\Enterprise -->
<g id="node10" class="node">
<title>\\GeoIp2\\Model\\Enterprise</title>
<polygon fill="none" stroke="black" points="1200.74,-1344.21 1116.74,-1344.21 1116.74,-1308.21 1200.74,-1308.21 1200.74,-1344.21"/>
<text text-anchor="middle" x="1158.74" y="-1323.41" font-family="Courier,monospace" font-size="11.00">Enterprise</text>
</g>
<!-- \\GeoIp2\\Model\\Enterprise&#45;&gt;\\GeoIp2\\Model\\City -->
<g id="edge10" class="edge">
<title>\\GeoIp2\\Model\\Enterprise&#45;&gt;\\GeoIp2\\Model\\City</title>
<path fill="none" stroke="black" d="M1116.71,-1326.21C1061.18,-1326.21 962.97,-1326.21 909.91,-1326.21"/>
<polygon fill="none" stroke="black" points="909.61,-1322.71 899.61,-1326.21 909.61,-1329.71 909.61,-1322.71"/>
</g>
<!-- \\GeoIp2\\Record\\City -->
<g id="node11" class="node">
<title>\\GeoIp2\\Record\\City</title>
<polygon fill="none" stroke="black" points="1185.74,-968.21 1131.74,-968.21 1131.74,-932.21 1185.74,-932.21 1185.74,-968.21"/>
<text text-anchor="middle" x="1158.74" y="-947.41" font-family="Courier,monospace" font-size="11.00">City</text>
</g>
<!-- \\GeoIp2\\Record\\AbstractPlaceRecord -->
<g id="node33" class="node">
<title>\\GeoIp2\\Record\\AbstractPlaceRecord</title>
<ellipse fill="none" stroke="black" cx="532.02" cy="-146.21" rx="143.77" ry="18"/>
<text text-anchor="middle" x="532.02" y="-142.51" font-family="Times,serif" font-size="14.00" fill="gray">\GeoIp2\Record\AbstractPlaceRecord</text>
</g>
<!-- \\GeoIp2\\Record\\City&#45;&gt;\\GeoIp2\\Record\\AbstractPlaceRecord -->
<g id="edge11" class="edge">
<title>\\GeoIp2\\Record\\City&#45;&gt;\\GeoIp2\\Record\\AbstractPlaceRecord</title>
<path fill="none" stroke="black" d="M1131.54,-951.89C1105.5,-951.99 1066.48,-947.59 1045.24,-923.21 973.8,-841.22 1054.57,-528.62 997.24,-436.21 904.42,-286.61 702.81,-201.65 598.49,-166.13"/>
<polygon fill="none" stroke="black" points="599.3,-162.71 588.71,-162.85 597.07,-169.35 599.3,-162.71"/>
</g>
<!-- \\GeoIp2\\Record\\Location -->
<g id="node12" class="node">
<title>\\GeoIp2\\Record\\Location</title>
<polygon fill="none" stroke="black" points="1194.24,-860.21 1123.24,-860.21 1123.24,-824.21 1194.24,-824.21 1194.24,-860.21"/>
<text text-anchor="middle" x="1158.74" y="-839.41" font-family="Courier,monospace" font-size="11.00">Location</text>
</g>
<!-- \\GeoIp2\\Record\\AbstractRecord -->
<g id="node34" class="node">
<title>\\GeoIp2\\Record\\AbstractRecord</title>
<ellipse fill="none" stroke="black" cx="872.45" cy="-146.21" rx="124.58" ry="18"/>
<text text-anchor="middle" x="872.45" y="-142.51" font-family="Times,serif" font-size="14.00" fill="gray">\GeoIp2\Record\AbstractRecord</text>
</g>
<!-- \\GeoIp2\\Record\\Location&#45;&gt;\\GeoIp2\\Record\\AbstractRecord -->
<g id="edge12" class="edge">
<title>\\GeoIp2\\Record\\Location&#45;&gt;\\GeoIp2\\Record\\AbstractRecord</title>
<path fill="none" stroke="black" d="M1123.15,-843.77C1097.68,-842.89 1064.29,-837.11 1045.24,-815.21 972.57,-731.66 1036.12,-422.9 997.24,-319.21 975.24,-260.56 928.05,-203.68 898.71,-171.97"/>
<polygon fill="none" stroke="black" points="901.05,-169.36 891.66,-164.47 895.95,-174.15 901.05,-169.36"/>
</g>
<!-- \\GeoIp2\\Record\\Postal -->
<g id="node13" class="node">
<title>\\GeoIp2\\Record\\Postal</title>
<polygon fill="none" stroke="black" points="1187.24,-806.21 1130.24,-806.21 1130.24,-770.21 1187.24,-770.21 1187.24,-806.21"/>
<text text-anchor="middle" x="1158.74" y="-785.41" font-family="Courier,monospace" font-size="11.00">Postal</text>
</g>
<!-- \\GeoIp2\\Record\\Postal&#45;&gt;\\GeoIp2\\Record\\AbstractRecord -->
<g id="edge13" class="edge">
<title>\\GeoIp2\\Record\\Postal&#45;&gt;\\GeoIp2\\Record\\AbstractRecord</title>
<path fill="none" stroke="black" d="M1130.12,-789.84C1104.15,-789.74 1066.21,-785.04 1045.24,-761.21 979.97,-687.05 1032.47,-411.52 997.24,-319.21 974.78,-260.37 927.3,-203.15 898.11,-171.5"/>
<polygon fill="none" stroke="black" points="900.5,-168.93 891.11,-164.02 895.39,-173.71 900.5,-168.93"/>
</g>
<!-- \\GeoIp2\\Record\\Continent -->
<g id="node14" class="node">
<title>\\GeoIp2\\Record\\Continent</title>
<polygon fill="none" stroke="black" points="1197.24,-752.21 1120.24,-752.21 1120.24,-716.21 1197.24,-716.21 1197.24,-752.21"/>
<text text-anchor="middle" x="1158.74" y="-731.41" font-family="Courier,monospace" font-size="11.00">Continent</text>
</g>
<!-- \\GeoIp2\\Record\\Continent&#45;&gt;\\GeoIp2\\Record\\AbstractPlaceRecord -->
<g id="edge14" class="edge">
<title>\\GeoIp2\\Record\\Continent&#45;&gt;\\GeoIp2\\Record\\AbstractPlaceRecord</title>
<path fill="none" stroke="black" d="M1120.11,-735.73C1095.01,-734.55 1063.4,-728.41 1045.24,-707.21 959.95,-607.65 1086.6,-215.14 997.24,-119.21 959.3,-78.48 922.35,-126.79 873.45,-100.21"/>
</g>
<!-- \\GeoIp2\\Record\\MaxMind -->
<g id="node15" class="node">
<title>\\GeoIp2\\Record\\MaxMind</title>
<polygon fill="none" stroke="black" points="1190.74,-914.21 1126.74,-914.21 1126.74,-878.21 1190.74,-878.21 1190.74,-914.21"/>
<text text-anchor="middle" x="1158.74" y="-893.41" font-family="Courier,monospace" font-size="11.00">MaxMind</text>
</g>
<!-- \\GeoIp2\\Record\\MaxMind&#45;&gt;\\GeoIp2\\Record\\AbstractRecord -->
<g id="edge15" class="edge">
<title>\\GeoIp2\\Record\\MaxMind&#45;&gt;\\GeoIp2\\Record\\AbstractRecord</title>
<path fill="none" stroke="black" d="M1126.74,-897.91C1100.86,-897.49 1065.1,-892.27 1045.24,-869.21 965.16,-776.26 1039.78,-434.29 997.24,-319.21 975.52,-260.45 928.24,-203.61 898.8,-171.94"/>
<polygon fill="none" stroke="black" points="901.14,-169.31 891.73,-164.44 896.05,-174.12 901.14,-169.31"/>
</g>
<!-- \\GeoIp2\\Record\\Country -->
<g id="node16" class="node">
<title>\\GeoIp2\\Record\\Country</title>
<polygon fill="none" stroke="black" points="904.45,-860.21 840.45,-860.21 840.45,-824.21 904.45,-824.21 904.45,-860.21"/>
<text text-anchor="middle" x="872.45" y="-839.41" font-family="Courier,monospace" font-size="11.00">Country</text>
</g>
<!-- \\GeoIp2\\Record\\Country&#45;&gt;\\GeoIp2\\Record\\AbstractPlaceRecord -->
<g id="edge16" class="edge">
<title>\\GeoIp2\\Record\\Country&#45;&gt;\\GeoIp2\\Record\\AbstractPlaceRecord</title>
<path fill="none" stroke="black" d="M840.2,-845.06C812.61,-845.82 772.95,-842.36 747.66,-820.21 546,-643.63 532.19,-278.18 532.5,-174.3"/>
<polygon fill="none" stroke="black" points="536,-174.3 532.57,-164.28 529,-174.25 536,-174.3"/>
</g>
<!-- \\GeoIp2\\Record\\Subdivision -->
<g id="node17" class="node">
<title>\\GeoIp2\\Record\\Subdivision</title>
<polygon fill="none" stroke="black" points="1204.24,-698.21 1113.24,-698.21 1113.24,-662.21 1204.24,-662.21 1204.24,-698.21"/>
<text text-anchor="middle" x="1158.74" y="-677.41" font-family="Courier,monospace" font-size="11.00">Subdivision</text>
</g>
<!-- \\GeoIp2\\Record\\Subdivision&#45;&gt;\\GeoIp2\\Record\\AbstractPlaceRecord -->
<g id="edge17" class="edge">
<title>\\GeoIp2\\Record\\Subdivision&#45;&gt;\\GeoIp2\\Record\\AbstractPlaceRecord</title>
<path fill="none" stroke="black" d="M1113.15,-679.96C1089.38,-677.32 1061.72,-669.77 1045.24,-650.21 968.9,-559.61 1078.38,-205.55 997.24,-119.21 959.12,-78.65 922.35,-126.79 873.45,-100.21"/>
<path fill="none" stroke="black" d="M871.45,-100.21C776.24,-48.46 644.49,-94.04 576.89,-124.36"/>
<polygon fill="none" stroke="black" points="575.03,-121.37 567.4,-128.71 577.95,-127.73 575.03,-121.37"/>
</g>
<!-- \\GeoIp2\\Record\\RepresentedCountry -->
<g id="node18" class="node">
<title>\\GeoIp2\\Record\\RepresentedCountry</title>
<polygon fill="none" stroke="black" points="1227.74,-1022.21 1089.74,-1022.21 1089.74,-986.21 1227.74,-986.21 1227.74,-1022.21"/>
<text text-anchor="middle" x="1158.74" y="-1001.41" font-family="Courier,monospace" font-size="11.00">RepresentedCountry</text>
</g>
<!-- \\GeoIp2\\Record\\RepresentedCountry&#45;&gt;\\GeoIp2\\Record\\Country -->
<g id="edge18" class="edge">
<title>\\GeoIp2\\Record\\RepresentedCountry&#45;&gt;\\GeoIp2\\Record\\Country</title>
<path fill="none" stroke="black" d="M1089.48,-992.8C1074.48,-988.94 1058.98,-983.86 1045.24,-977.21 987.01,-949.03 930.12,-898.48 898.63,-867.87"/>
<polygon fill="none" stroke="black" points="900.77,-865.07 891.19,-860.55 895.86,-870.06 900.77,-865.07"/>
</g>
<!-- \\GeoIp2\\WebService\\Client -->
<g id="node19" class="node">
<title>\\GeoIp2\\WebService\\Client</title>
<polygon fill="none" stroke="black" points="1187.24,-618.21 1130.24,-618.21 1130.24,-582.21 1187.24,-582.21 1187.24,-618.21"/>
<text text-anchor="middle" x="1158.74" y="-597.41" font-family="Courier,monospace" font-size="11.00">Client</text>
</g>
<!-- \\GeoIp2\\ProviderInterface -->
<g id="node28" class="node">
<title>\\GeoIp2\\ProviderInterface</title>
<polygon fill="none" stroke="black" points="937.95,-578.21 806.95,-578.21 806.95,-542.21 937.95,-542.21 937.95,-578.21"/>
<text text-anchor="middle" x="872.45" y="-557.41" font-family="Courier,monospace" font-size="11.00">ProviderInterface</text>
</g>
<!-- \\GeoIp2\\WebService\\Client&#45;&gt;\\GeoIp2\\ProviderInterface -->
<g id="edge19" class="edge">
<title>\\GeoIp2\\WebService\\Client&#45;&gt;\\GeoIp2\\ProviderInterface</title>
<path fill="none" stroke="black" stroke-dasharray="1,5" d="M1130.22,-596.34C1088.6,-590.48 1008.14,-579.16 948.33,-570.75"/>
<polygon fill="none" stroke="black" points="948.56,-567.25 938.17,-569.32 947.58,-574.18 948.56,-567.25"/>
</g>
<!-- \\GeoIp2\\Exception\\InvalidRequestException -->
<g id="node20" class="node">
<title>\\GeoIp2\\Exception\\InvalidRequestException</title>
<polygon fill="none" stroke="black" points="1244.74,-1264.21 1072.74,-1264.21 1072.74,-1228.21 1244.74,-1228.21 1244.74,-1264.21"/>
<text text-anchor="middle" x="1158.74" y="-1243.41" font-family="Courier,monospace" font-size="11.00">InvalidRequestException</text>
</g>
<!-- \\GeoIp2\\Exception\\HttpException -->
<g id="node23" class="node">
<title>\\GeoIp2\\Exception\\HttpException</title>
<polygon fill="none" stroke="black" points="924.45,-1264.21 820.45,-1264.21 820.45,-1228.21 924.45,-1228.21 924.45,-1264.21"/>
<text text-anchor="middle" x="872.45" y="-1243.41" font-family="Courier,monospace" font-size="11.00">HttpException</text>
</g>
<!-- \\GeoIp2\\Exception\\InvalidRequestException&#45;&gt;\\GeoIp2\\Exception\\HttpException -->
<g id="edge20" class="edge">
<title>\\GeoIp2\\Exception\\InvalidRequestException&#45;&gt;\\GeoIp2\\Exception\\HttpException</title>
<path fill="none" stroke="black" d="M1072.44,-1246.21C1028.21,-1246.21 975.18,-1246.21 934.99,-1246.21"/>
<polygon fill="none" stroke="black" points="934.8,-1242.71 924.8,-1246.21 934.8,-1249.71 934.8,-1242.71"/>
</g>
<!-- \\GeoIp2\\Exception\\AddressNotFoundException -->
<g id="node21" class="node">
<title>\\GeoIp2\\Exception\\AddressNotFoundException</title>
<polygon fill="none" stroke="black" points="961.95,-1210.21 782.95,-1210.21 782.95,-1174.21 961.95,-1174.21 961.95,-1210.21"/>
<text text-anchor="middle" x="872.45" y="-1189.41" font-family="Courier,monospace" font-size="11.00">AddressNotFoundException</text>
</g>
<!-- \\GeoIp2\\Exception\\GeoIp2Exception -->
<g id="node25" class="node">
<title>\\GeoIp2\\Exception\\GeoIp2Exception</title>
<polygon fill="none" stroke="black" points="591.02,-1156.21 473.02,-1156.21 473.02,-1120.21 591.02,-1120.21 591.02,-1156.21"/>
<text text-anchor="middle" x="532.02" y="-1135.41" font-family="Courier,monospace" font-size="11.00">GeoIp2Exception</text>
</g>
<!-- \\GeoIp2\\Exception\\AddressNotFoundException&#45;&gt;\\GeoIp2\\Exception\\GeoIp2Exception -->
<g id="edge21" class="edge">
<title>\\GeoIp2\\Exception\\AddressNotFoundException&#45;&gt;\\GeoIp2\\Exception\\GeoIp2Exception</title>
<path fill="none" stroke="black" d="M782.53,-1178.02C725.8,-1168.97 653.39,-1157.42 601.21,-1149.09"/>
<polygon fill="none" stroke="black" points="601.48,-1145.59 591.05,-1147.47 600.38,-1152.5 601.48,-1145.59"/>
</g>
<!-- \\GeoIp2\\Exception\\OutOfQueriesException -->
<g id="node22" class="node">
<title>\\GeoIp2\\Exception\\OutOfQueriesException</title>
<polygon fill="none" stroke="black" points="951.45,-1156.21 793.45,-1156.21 793.45,-1120.21 951.45,-1120.21 951.45,-1156.21"/>
<text text-anchor="middle" x="872.45" y="-1135.41" font-family="Courier,monospace" font-size="11.00">OutOfQueriesException</text>
</g>
<!-- \\GeoIp2\\Exception\\OutOfQueriesException&#45;&gt;\\GeoIp2\\Exception\\GeoIp2Exception -->
<g id="edge22" class="edge">
<title>\\GeoIp2\\Exception\\OutOfQueriesException&#45;&gt;\\GeoIp2\\Exception\\GeoIp2Exception</title>
<path fill="none" stroke="black" d="M793.38,-1138.21C735.31,-1138.21 656.83,-1138.21 601.26,-1138.21"/>
<polygon fill="none" stroke="black" points="601.16,-1134.71 591.16,-1138.21 601.16,-1141.71 601.16,-1134.71"/>
</g>
<!-- \\GeoIp2\\Exception\\HttpException&#45;&gt;\\GeoIp2\\Exception\\GeoIp2Exception -->
<g id="edge23" class="edge">
<title>\\GeoIp2\\Exception\\HttpException&#45;&gt;\\GeoIp2\\Exception\\GeoIp2Exception</title>
<path fill="none" stroke="black" d="M820.43,-1236.83C797.93,-1232.25 771.28,-1226.2 747.66,-1219.21 691.03,-1202.45 627.99,-1177.93 584.97,-1160.26"/>
<polygon fill="none" stroke="black" points="586.14,-1156.96 575.56,-1156.38 583.47,-1163.43 586.14,-1156.96"/>
</g>
<!-- \\GeoIp2\\Exception\\AuthenticationException -->
<g id="node24" class="node">
<title>\\GeoIp2\\Exception\\AuthenticationException</title>
<polygon fill="none" stroke="black" points="958.45,-1102.21 786.45,-1102.21 786.45,-1066.21 958.45,-1066.21 958.45,-1102.21"/>
<text text-anchor="middle" x="872.45" y="-1081.41" font-family="Courier,monospace" font-size="11.00">AuthenticationException</text>
</g>
<!-- \\GeoIp2\\Exception\\AuthenticationException&#45;&gt;\\GeoIp2\\Exception\\GeoIp2Exception -->
<g id="edge24" class="edge">
<title>\\GeoIp2\\Exception\\AuthenticationException&#45;&gt;\\GeoIp2\\Exception\\GeoIp2Exception</title>
<path fill="none" stroke="black" d="M786.05,-1097.84C728.84,-1106.97 654.53,-1118.82 601.26,-1127.32"/>
<polygon fill="none" stroke="black" points="600.56,-1123.89 591.24,-1128.92 601.67,-1130.8 600.56,-1123.89"/>
</g>
<!-- \\Exception -->
<g id="node35" class="node">
<title>\\Exception</title>
<ellipse fill="none" stroke="black" cx="264.39" cy="-104.21" rx="48.99" ry="18"/>
<text text-anchor="middle" x="264.39" y="-100.51" font-family="Times,serif" font-size="14.00" fill="gray">\Exception</text>
</g>
<!-- \\GeoIp2\\Exception\\GeoIp2Exception&#45;&gt;\\Exception -->
<g id="edge25" class="edge">
<title>\\GeoIp2\\Exception\\GeoIp2Exception&#45;&gt;\\Exception</title>
<path fill="none" stroke="black" d="M526.3,-1119.83C494.45,-995.86 311.18,-282.47 272.54,-132.05"/>
<polygon fill="none" stroke="black" points="275.89,-131.03 270.01,-122.21 269.11,-132.77 275.89,-131.03"/>
</g>
<!-- \\GeoIp2\\Database\\Reader -->
<g id="node26" class="node">
<title>\\GeoIp2\\Database\\Reader</title>
<polygon fill="none" stroke="black" points="1187.24,-538.21 1130.24,-538.21 1130.24,-502.21 1187.24,-502.21 1187.24,-538.21"/>
<text text-anchor="middle" x="1158.74" y="-517.41" font-family="Courier,monospace" font-size="11.00">Reader</text>
</g>
<!-- \\GeoIp2\\Database\\Reader&#45;&gt;\\GeoIp2\\ProviderInterface -->
<g id="edge26" class="edge">
<title>\\GeoIp2\\Database\\Reader&#45;&gt;\\GeoIp2\\ProviderInterface</title>
<path fill="none" stroke="black" stroke-dasharray="1,5" d="M1130.22,-524.08C1088.6,-529.94 1008.14,-541.26 948.33,-549.68"/>
<polygon fill="none" stroke="black" points="947.58,-546.25 938.17,-551.11 948.56,-553.18 947.58,-546.25"/>
</g>
<!-- \\GeoIp2\\Util -->
<g id="node27" class="node">
<title>\\GeoIp2\\Util</title>
<polygon fill="none" stroke="black" points="1185.74,-484.21 1131.74,-484.21 1131.74,-448.21 1185.74,-448.21 1185.74,-484.21"/>
<text text-anchor="middle" x="1158.74" y="-463.41" font-family="Courier,monospace" font-size="11.00">Util</text>
</g>
<!-- \\MaxMind\\Db\\Reader\\InvalidDatabaseException -->
<g id="node29" class="node">
<title>\\MaxMind\\Db\\Reader\\InvalidDatabaseException</title>
<polygon fill="none" stroke="black" points="1248.24,-348.21 1069.24,-348.21 1069.24,-312.21 1248.24,-312.21 1248.24,-348.21"/>
<text text-anchor="middle" x="1158.74" y="-327.41" font-family="Courier,monospace" font-size="11.00">InvalidDatabaseException</text>
</g>
<!-- \\MaxMind\\Db\\Reader\\InvalidDatabaseException&#45;&gt;\\Exception -->
<g id="edge27" class="edge">
<title>\\MaxMind\\Db\\Reader\\InvalidDatabaseException&#45;&gt;\\Exception</title>
<path fill="none" stroke="black" d="M1069,-319.33C1060.17,-315.34 1052,-310.09 1045.24,-303.21 976.02,-232.75 1074.26,-148.06 997.24,-86.21 788.34,81.53 427.27,-39.17 306.25,-87.03"/>
<polygon fill="none" stroke="black" points="304.94,-83.79 296.96,-90.75 307.54,-90.29 304.94,-83.79"/>
</g>
<!-- \\MaxMind\\Db\\Reader\\Util -->
<g id="node30" class="node">
<title>\\MaxMind\\Db\\Reader\\Util</title>
<polygon fill="none" stroke="black" points="1185.74,-294.21 1131.74,-294.21 1131.74,-258.21 1185.74,-258.21 1185.74,-294.21"/>
<text text-anchor="middle" x="1158.74" y="-273.41" font-family="Courier,monospace" font-size="11.00">Util</text>
</g>
<!-- \\MaxMind\\Db\\Reader\\Metadata -->
<g id="node31" class="node">
<title>\\MaxMind\\Db\\Reader\\Metadata</title>
<polygon fill="none" stroke="black" points="1194.24,-240.21 1123.24,-240.21 1123.24,-204.21 1194.24,-204.21 1194.24,-240.21"/>
<text text-anchor="middle" x="1158.74" y="-219.41" font-family="Courier,monospace" font-size="11.00">Metadata</text>
</g>
</g>
</svg>
