<?xml version="1.0" encoding="UTF-8" standalone="no"?>
<!DOCTYPE svg PUBLIC "-//W3C//DTD SVG 1.1//EN"
 "http://www.w3.org/Graphics/SVG/1.1/DTD/svg11.dtd">
<!-- Generated by graphviz version 2.40.1 (20161225.0304)
 -->
<!-- Title: G Pages: 1 -->
<svg width="1090pt" height="1578pt"
 viewBox="0.00 0.00 1090.39 1578.00" xmlns="http://www.w3.org/2000/svg" xmlns:xlink="http://www.w3.org/1999/xlink">
<g id="graph0" class="graph" transform="scale(1 1) rotate(0) translate(4 1574)">
<title>G</title>
<polygon fill="#ffffff" stroke="transparent" points="-4,4 -4,-1574 1086.3875,-1574 1086.3875,4 -4,4"/>
<g id="clust1" class="cluster">
<title>cluster_Global</title>
<path fill="none" stroke="#c0c0c0" d="M200.3875,-44C200.3875,-44 1062.3875,-44 1062.3875,-44 1068.3875,-44 1074.3875,-50 1074.3875,-56 1074.3875,-56 1074.3875,-1550 1074.3875,-1550 1074.3875,-1556 1068.3875,-1562 1062.3875,-1562 1062.3875,-1562 200.3875,-1562 200.3875,-1562 194.3875,-1562 188.3875,-1556 188.3875,-1550 188.3875,-1550 188.3875,-56 188.3875,-56 188.3875,-50 194.3875,-44 200.3875,-44"/>
<text text-anchor="middle" x="631.3875" y="-1549.2" font-family="Times,serif" font-size="11.00" fill="#c0c0c0">Global</text>
</g>
<g id="clust2" class="cluster">
<title>cluster_\GeoIp2</title>
<path fill="none" stroke="#c0c0c0" d="M208.3875,-412C208.3875,-412 1042.8875,-412 1042.8875,-412 1048.8875,-412 1054.8875,-418 1054.8875,-424 1054.8875,-424 1054.8875,-1522 1054.8875,-1522 1054.8875,-1528 1048.8875,-1534 1042.8875,-1534 1042.8875,-1534 208.3875,-1534 208.3875,-1534 202.3875,-1534 196.3875,-1528 196.3875,-1522 196.3875,-1522 196.3875,-424 196.3875,-424 196.3875,-418 202.3875,-412 208.3875,-412"/>
<text text-anchor="middle" x="625.6375" y="-1521.2" font-family="Times,serif" font-size="11.00" fill="#c0c0c0">GeoIp2</text>
</g>
<g id="clust3" class="cluster">
<title>cluster_\GeoIp2\Model</title>
<path fill="none" stroke="#c0c0c0" d="M219.8875,-1164C219.8875,-1164 990.8875,-1164 990.8875,-1164 996.8875,-1164 1002.8875,-1170 1002.8875,-1176 1002.8875,-1176 1002.8875,-1494 1002.8875,-1494 1002.8875,-1500 996.8875,-1506 990.8875,-1506 990.8875,-1506 219.8875,-1506 219.8875,-1506 213.8875,-1506 207.8875,-1500 207.8875,-1494 207.8875,-1494 207.8875,-1176 207.8875,-1176 207.8875,-1170 213.8875,-1164 219.8875,-1164"/>
<text text-anchor="middle" x="605.3875" y="-1493.2" font-family="Times,serif" font-size="11.00" fill="#c0c0c0">Model</text>
</g>
<g id="clust4" class="cluster">
<title>cluster_\GeoIp2\Record</title>
<path fill="none" stroke="#c0c0c0" d="M216.3875,-868C216.3875,-868 1017.8875,-868 1017.8875,-868 1023.8875,-868 1029.8875,-874 1029.8875,-880 1029.8875,-880 1029.8875,-1144 1029.8875,-1144 1029.8875,-1150 1023.8875,-1156 1017.8875,-1156 1017.8875,-1156 216.3875,-1156 216.3875,-1156 210.3875,-1156 204.3875,-1150 204.3875,-1144 204.3875,-1144 204.3875,-880 204.3875,-880 204.3875,-874 210.3875,-868 216.3875,-868"/>
<text text-anchor="middle" x="617.1375" y="-1143.2" font-family="Times,serif" font-size="11.00" fill="#c0c0c0">Record</text>
</g>
<g id="clust5" class="cluster">
<title>cluster_\GeoIp2\WebService</title>
<path fill="none" stroke="#c0c0c0" d="M928.3875,-546C928.3875,-546 977.3875,-546 977.3875,-546 983.3875,-546 989.3875,-552 989.3875,-558 989.3875,-558 989.3875,-606 989.3875,-606 989.3875,-612 983.3875,-618 977.3875,-618 977.3875,-618 928.3875,-618 928.3875,-618 922.3875,-618 916.3875,-612 916.3875,-606 916.3875,-606 916.3875,-558 916.3875,-558 916.3875,-552 922.3875,-546 928.3875,-546"/>
<text text-anchor="middle" x="952.8875" y="-605.2" font-family="Times,serif" font-size="11.00" fill="#c0c0c0">WebService</text>
</g>
<g id="clust6" class="cluster">
<title>cluster_\GeoIp2\Exception</title>
<path fill="none" stroke="#c0c0c0" d="M412.8875,-626C412.8875,-626 1034.8875,-626 1034.8875,-626 1040.8875,-626 1046.8875,-632 1046.8875,-638 1046.8875,-638 1046.8875,-848 1046.8875,-848 1046.8875,-854 1040.8875,-860 1034.8875,-860 1034.8875,-860 412.8875,-860 412.8875,-860 406.8875,-860 400.8875,-854 400.8875,-848 400.8875,-848 400.8875,-638 400.8875,-638 400.8875,-632 406.8875,-626 412.8875,-626"/>
<text text-anchor="middle" x="723.8875" y="-847.2" font-family="Times,serif" font-size="11.00" fill="#c0c0c0">Exception</text>
</g>
<g id="clust7" class="cluster">
<title>cluster_\GeoIp2\Database</title>
<path fill="none" stroke="#c0c0c0" d="M928.3875,-466C928.3875,-466 977.3875,-466 977.3875,-466 983.3875,-466 989.3875,-472 989.3875,-478 989.3875,-478 989.3875,-526 989.3875,-526 989.3875,-532 983.3875,-538 977.3875,-538 977.3875,-538 928.3875,-538 928.3875,-538 922.3875,-538 916.3875,-532 916.3875,-526 916.3875,-526 916.3875,-478 916.3875,-478 916.3875,-472 922.3875,-466 928.3875,-466"/>
<text text-anchor="middle" x="952.8875" y="-525.2" font-family="Times,serif" font-size="11.00" fill="#c0c0c0">Database</text>
</g>
<g id="clust8" class="cluster">
<title>cluster_\MaxMind</title>
<path fill="none" stroke="#c0c0c0" d="M851.3875,-52C851.3875,-52 1054.3875,-52 1054.3875,-52 1060.3875,-52 1066.3875,-58 1066.3875,-64 1066.3875,-64 1066.3875,-392 1066.3875,-392 1066.3875,-398 1060.3875,-404 1054.3875,-404 1054.3875,-404 851.3875,-404 851.3875,-404 845.3875,-404 839.3875,-398 839.3875,-392 839.3875,-392 839.3875,-64 839.3875,-64 839.3875,-58 845.3875,-52 851.3875,-52"/>
<text text-anchor="middle" x="952.8875" y="-391.2" font-family="Times,serif" font-size="11.00" fill="#c0c0c0">MaxMind</text>
</g>
<g id="clust9" class="cluster">
<title>cluster_\MaxMind\Db</title>
<path fill="none" stroke="#c0c0c0" d="M859.3875,-60C859.3875,-60 1046.3875,-60 1046.3875,-60 1052.3875,-60 1058.3875,-66 1058.3875,-72 1058.3875,-72 1058.3875,-364 1058.3875,-364 1058.3875,-370 1052.3875,-376 1046.3875,-376 1046.3875,-376 859.3875,-376 859.3875,-376 853.3875,-376 847.3875,-370 847.3875,-364 847.3875,-364 847.3875,-72 847.3875,-72 847.3875,-66 853.3875,-60 859.3875,-60"/>
<text text-anchor="middle" x="952.8875" y="-363.2" font-family="Times,serif" font-size="11.00" fill="#c0c0c0">Db</text>
</g>
<g id="clust10" class="cluster">
<title>cluster_\MaxMind\Db\Reader</title>
<path fill="none" stroke="#c0c0c0" d="M867.3875,-114C867.3875,-114 1038.3875,-114 1038.3875,-114 1044.3875,-114 1050.3875,-120 1050.3875,-126 1050.3875,-126 1050.3875,-336 1050.3875,-336 1050.3875,-342 1044.3875,-348 1038.3875,-348 1038.3875,-348 867.3875,-348 867.3875,-348 861.3875,-348 855.3875,-342 855.3875,-336 855.3875,-336 855.3875,-126 855.3875,-126 855.3875,-120 861.3875,-114 867.3875,-114"/>
<text text-anchor="middle" x="952.8875" y="-335.2" font-family="Times,serif" font-size="11.00" fill="#c0c0c0">Reader</text>
</g>
<!-- \\GeoIp2\\Model\\Isp -->
<g id="node1" class="node">
<title>\\GeoIp2\\Model\\Isp</title>
<polygon fill="none" stroke="#000000" points="494.8875,-1478 440.8875,-1478 440.8875,-1442 494.8875,-1442 494.8875,-1478"/>
<text text-anchor="middle" x="467.8875" y="-1457.2" font-family="Courier,monospace" font-size="11.00" fill="#000000">Isp</text>
</g>
<!-- \\GeoIp2\\Model\\AbstractModel -->
<g id="node5" class="node">
<title>\\GeoIp2\\Model\\AbstractModel</title>
<polygon fill="none" stroke="#000000" points="319.8875,-1316 215.8875,-1316 215.8875,-1280 319.8875,-1280 319.8875,-1316"/>
<text text-anchor="start" x="233.8875" y="-1301.2" font-family="Courier,monospace" font-size="11.00" fill="#000000">«abstract»</text>
<text text-anchor="start" x="223.8875" y="-1289.2" font-family="Courier,monospace" font-size="11.00" fill="#000000">AbstractModel</text>
</g>
<!-- \\GeoIp2\\Model\\Isp&#45;&gt;\\GeoIp2\\Model\\AbstractModel -->
<g id="edge1" class="edge">
<title>\\GeoIp2\\Model\\Isp&#45;&gt;\\GeoIp2\\Model\\AbstractModel</title>
<path fill="none" stroke="#000000" d="M440.6657,-1453.0989C426.4334,-1448.7152 409.1588,-1442.1258 395.3875,-1433 350.3834,-1403.1771 309.6975,-1354.6004 286.9393,-1324.569"/>
<polygon fill="none" stroke="#000000" points="289.5214,-1322.1768 280.7369,-1316.2536 283.9103,-1326.3621 289.5214,-1322.1768"/>
</g>
<!-- \\GeoIp2\\Model\\ConnectionType -->
<g id="node2" class="node">
<title>\\GeoIp2\\Model\\ConnectionType</title>
<polygon fill="none" stroke="#000000" points="523.3875,-1424 412.3875,-1424 412.3875,-1388 523.3875,-1388 523.3875,-1424"/>
<text text-anchor="middle" x="467.8875" y="-1403.2" font-family="Courier,monospace" font-size="11.00" fill="#000000">ConnectionType</text>
</g>
<!-- \\GeoIp2\\Model\\ConnectionType&#45;&gt;\\GeoIp2\\Model\\AbstractModel -->
<g id="edge2" class="edge">
<title>\\GeoIp2\\Model\\ConnectionType&#45;&gt;\\GeoIp2\\Model\\AbstractModel</title>
<path fill="none" stroke="#000000" d="M415.4486,-1387.969C408.605,-1385.1818 401.7623,-1382.1682 395.3875,-1379 361.9858,-1362.3998 326.3428,-1339.2424 301.2594,-1321.9382"/>
<polygon fill="none" stroke="#000000" points="303.0551,-1318.9236 292.8485,-1316.0819 299.0552,-1324.6683 303.0551,-1318.9236"/>
</g>
<!-- \\GeoIp2\\Model\\City -->
<g id="node3" class="node">
<title>\\GeoIp2\\Model\\City</title>
<polygon fill="none" stroke="#000000" points="728.8875,-1208 674.8875,-1208 674.8875,-1172 728.8875,-1172 728.8875,-1208"/>
<text text-anchor="middle" x="701.8875" y="-1187.2" font-family="Courier,monospace" font-size="11.00" fill="#000000">City</text>
</g>
<!-- \\GeoIp2\\Model\\Country -->
<g id="node9" class="node">
<title>\\GeoIp2\\Model\\Country</title>
<polygon fill="none" stroke="#000000" points="499.8875,-1208 435.8875,-1208 435.8875,-1172 499.8875,-1172 499.8875,-1208"/>
<text text-anchor="middle" x="467.8875" y="-1187.2" font-family="Courier,monospace" font-size="11.00" fill="#000000">Country</text>
</g>
<!-- \\GeoIp2\\Model\\City&#45;&gt;\\GeoIp2\\Model\\Country -->
<g id="edge3" class="edge">
<title>\\GeoIp2\\Model\\City&#45;&gt;\\GeoIp2\\Model\\Country</title>
<path fill="none" stroke="#000000" d="M674.5868,-1190C634.1522,-1190 557.9964,-1190 510.2691,-1190"/>
<polygon fill="none" stroke="#000000" points="510.2476,-1186.5001 500.2476,-1190 510.2476,-1193.5001 510.2476,-1186.5001"/>
</g>
<!-- \\GeoIp2\\Model\\AnonymousIp -->
<g id="node4" class="node">
<title>\\GeoIp2\\Model\\AnonymousIp</title>
<polygon fill="none" stroke="#000000" points="513.3875,-1370 422.3875,-1370 422.3875,-1334 513.3875,-1334 513.3875,-1370"/>
<text text-anchor="middle" x="467.8875" y="-1349.2" font-family="Courier,monospace" font-size="11.00" fill="#000000">AnonymousIp</text>
</g>
<!-- \\GeoIp2\\Model\\AnonymousIp&#45;&gt;\\GeoIp2\\Model\\AbstractModel -->
<g id="edge4" class="edge">
<title>\\GeoIp2\\Model\\AnonymousIp&#45;&gt;\\GeoIp2\\Model\\AbstractModel</title>
<path fill="none" stroke="#000000" d="M422.2542,-1339.679C394.9091,-1332.2958 359.7714,-1322.8086 329.9296,-1314.7514"/>
<polygon fill="none" stroke="#000000" points="330.5979,-1311.3065 320.0312,-1312.0788 328.7732,-1318.0645 330.5979,-1311.3065"/>
</g>
<!-- \\JsonSerializable -->
<g id="node37" class="node">
<title>\\JsonSerializable</title>
<ellipse fill="none" stroke="#000000" cx="70.1938" cy="-1177" rx="70.3881" ry="18"/>
<text text-anchor="middle" x="70.1938" y="-1173.3" font-family="Times,serif" font-size="14.00" fill="#c0c0c0">\JsonSerializable</text>
</g>
<!-- \\GeoIp2\\Model\\AbstractModel&#45;&gt;\\JsonSerializable -->
<g id="edge5" class="edge">
<title>\\GeoIp2\\Model\\AbstractModel&#45;&gt;\\JsonSerializable</title>
<path fill="none" stroke="#000000" stroke-dasharray="1,5" d="M238.2908,-1279.8851C202.9898,-1258.2788 144.0084,-1222.1788 106.1252,-1198.9921"/>
<polygon fill="none" stroke="#000000" points="107.8003,-1195.9139 97.4439,-1193.6787 104.146,-1201.8843 107.8003,-1195.9139"/>
</g>
<!-- \\GeoIp2\\Model\\Asn -->
<g id="node6" class="node">
<title>\\GeoIp2\\Model\\Asn</title>
<polygon fill="none" stroke="#000000" points="494.8875,-1316 440.8875,-1316 440.8875,-1280 494.8875,-1280 494.8875,-1316"/>
<text text-anchor="middle" x="467.8875" y="-1295.2" font-family="Courier,monospace" font-size="11.00" fill="#000000">Asn</text>
</g>
<!-- \\GeoIp2\\Model\\Asn&#45;&gt;\\GeoIp2\\Model\\AbstractModel -->
<g id="edge6" class="edge">
<title>\\GeoIp2\\Model\\Asn&#45;&gt;\\GeoIp2\\Model\\AbstractModel</title>
<path fill="none" stroke="#000000" d="M440.4978,-1298C412.2369,-1298 367.1893,-1298 330.2002,-1298"/>
<polygon fill="none" stroke="#000000" points="330.0017,-1294.5001 320.0017,-1298 330.0017,-1301.5001 330.0017,-1294.5001"/>
</g>
<!-- \\GeoIp2\\Model\\Insights -->
<g id="node7" class="node">
<title>\\GeoIp2\\Model\\Insights</title>
<polygon fill="none" stroke="#000000" points="988.3875,-1262 917.3875,-1262 917.3875,-1226 988.3875,-1226 988.3875,-1262"/>
<text text-anchor="middle" x="952.8875" y="-1241.2" font-family="Courier,monospace" font-size="11.00" fill="#000000">Insights</text>
</g>
<!-- \\GeoIp2\\Model\\Insights&#45;&gt;\\GeoIp2\\Model\\City -->
<g id="edge7" class="edge">
<title>\\GeoIp2\\Model\\Insights&#45;&gt;\\GeoIp2\\Model\\City</title>
<path fill="none" stroke="#000000" d="M917.1919,-1236.3205C869.9071,-1226.1476 786.905,-1208.2906 738.9455,-1197.9726"/>
<polygon fill="none" stroke="#000000" points="739.4948,-1194.5108 728.9823,-1195.8291 738.0224,-1201.3542 739.4948,-1194.5108"/>
</g>
<!-- \\GeoIp2\\Model\\Domain -->
<g id="node8" class="node">
<title>\\GeoIp2\\Model\\Domain</title>
<polygon fill="none" stroke="#000000" points="496.3875,-1262 439.3875,-1262 439.3875,-1226 496.3875,-1226 496.3875,-1262"/>
<text text-anchor="middle" x="467.8875" y="-1241.2" font-family="Courier,monospace" font-size="11.00" fill="#000000">Domain</text>
</g>
<!-- \\GeoIp2\\Model\\Domain&#45;&gt;\\GeoIp2\\Model\\AbstractModel -->
<g id="edge8" class="edge">
<title>\\GeoIp2\\Model\\Domain&#45;&gt;\\GeoIp2\\Model\\AbstractModel</title>
<path fill="none" stroke="#000000" d="M439.2324,-1251.7369C410.8972,-1259.3874 366.6156,-1271.3434 330.1676,-1281.1844"/>
<polygon fill="none" stroke="#000000" points="328.8568,-1277.9129 320.1148,-1283.8986 330.6815,-1284.6709 328.8568,-1277.9129"/>
</g>
<!-- \\GeoIp2\\Model\\Country&#45;&gt;\\GeoIp2\\Model\\AbstractModel -->
<g id="edge9" class="edge">
<title>\\GeoIp2\\Model\\Country&#45;&gt;\\GeoIp2\\Model\\AbstractModel</title>
<path fill="none" stroke="#000000" d="M435.876,-1200.2922C423.0343,-1204.8377 408.2573,-1210.6039 395.3875,-1217 361.9858,-1233.6002 326.3428,-1256.7576 301.2594,-1274.0618"/>
<polygon fill="none" stroke="#000000" points="299.0552,-1271.3317 292.8485,-1279.9181 303.0551,-1277.0764 299.0552,-1271.3317"/>
</g>
<!-- \\GeoIp2\\Model\\Enterprise -->
<g id="node10" class="node">
<title>\\GeoIp2\\Model\\Enterprise</title>
<polygon fill="none" stroke="#000000" points="994.8875,-1208 910.8875,-1208 910.8875,-1172 994.8875,-1172 994.8875,-1208"/>
<text text-anchor="middle" x="952.8875" y="-1187.2" font-family="Courier,monospace" font-size="11.00" fill="#000000">Enterprise</text>
</g>
<!-- \\GeoIp2\\Model\\Enterprise&#45;&gt;\\GeoIp2\\Model\\City -->
<g id="edge10" class="edge">
<title>\\GeoIp2\\Model\\Enterprise&#45;&gt;\\GeoIp2\\Model\\City</title>
<path fill="none" stroke="#000000" d="M910.8758,-1190C862.8415,-1190 784.9442,-1190 739.0418,-1190"/>
<polygon fill="none" stroke="#000000" points="738.9268,-1186.5001 728.9268,-1190 738.9268,-1193.5001 738.9268,-1186.5001"/>
</g>
<!-- \\GeoIp2\\Record\\City -->
<g id="node11" class="node">
<title>\\GeoIp2\\Record\\City</title>
<polygon fill="none" stroke="#000000" points="728.8875,-1074 674.8875,-1074 674.8875,-1038 728.8875,-1038 728.8875,-1074"/>
<text text-anchor="middle" x="701.8875" y="-1053.2" font-family="Courier,monospace" font-size="11.00" fill="#000000">City</text>
</g>
<!-- \\GeoIp2\\Record\\AbstractPlaceRecord -->
<g id="node19" class="node">
<title>\\GeoIp2\\Record\\AbstractPlaceRecord</title>
<polygon fill="none" stroke="#000000" points="540.3875,-912 395.3875,-912 395.3875,-876 540.3875,-876 540.3875,-912"/>
<text text-anchor="start" x="433.8875" y="-897.2" font-family="Courier,monospace" font-size="11.00" fill="#000000">«abstract»</text>
<text text-anchor="start" x="403.3875" y="-885.2" font-family="Courier,monospace" font-size="11.00" fill="#000000">AbstractPlaceRecord</text>
</g>
<!-- \\GeoIp2\\Record\\City&#45;&gt;\\GeoIp2\\Record\\AbstractPlaceRecord -->
<g id="edge11" class="edge">
<title>\\GeoIp2\\Record\\City&#45;&gt;\\GeoIp2\\Record\\AbstractPlaceRecord</title>
<path fill="none" stroke="#000000" d="M674.6557,-1052.7275C655.6968,-1049.3374 630.6411,-1042.5309 612.3875,-1029 566.0431,-994.646 585.6179,-956.808 540.3875,-921 538.8079,-919.7495 537.1645,-918.5528 535.4702,-917.4079"/>
<polygon fill="none" stroke="#000000" points="537.0099,-914.2501 526.6343,-912.1062 533.4084,-920.2525 537.0099,-914.2501"/>
</g>
<!-- \\GeoIp2\\Record\\Traits -->
<g id="node12" class="node">
<title>\\GeoIp2\\Record\\Traits</title>
<polygon fill="none" stroke="#000000" points="496.3875,-1128 439.3875,-1128 439.3875,-1092 496.3875,-1092 496.3875,-1128"/>
<text text-anchor="middle" x="467.8875" y="-1107.2" font-family="Courier,monospace" font-size="11.00" fill="#000000">Traits</text>
</g>
<!-- \\GeoIp2\\Record\\AbstractRecord -->
<g id="node14" class="node">
<title>\\GeoIp2\\Record\\AbstractRecord</title>
<polygon fill="none" stroke="#000000" points="323.3875,-1047 212.3875,-1047 212.3875,-1011 323.3875,-1011 323.3875,-1047"/>
<text text-anchor="start" x="233.8875" y="-1032.2" font-family="Courier,monospace" font-size="11.00" fill="#000000">«abstract»</text>
<text text-anchor="start" x="220.3875" y="-1020.2" font-family="Courier,monospace" font-size="11.00" fill="#000000">AbstractRecord</text>
</g>
<!-- \\GeoIp2\\Record\\Traits&#45;&gt;\\GeoIp2\\Record\\AbstractRecord -->
<g id="edge12" class="edge">
<title>\\GeoIp2\\Record\\Traits&#45;&gt;\\GeoIp2\\Record\\AbstractRecord</title>
<path fill="none" stroke="#000000" d="M439.1959,-1099.6457C425.8279,-1094.7369 409.7399,-1088.7086 395.3875,-1083 369.9641,-1072.8879 341.9442,-1061.0933 318.6621,-1051.1111"/>
<polygon fill="none" stroke="#000000" points="319.8971,-1047.8323 309.3278,-1047.0975 317.132,-1054.2631 319.8971,-1047.8323"/>
</g>
<!-- \\GeoIp2\\Record\\Location -->
<g id="node13" class="node">
<title>\\GeoIp2\\Record\\Location</title>
<polygon fill="none" stroke="#000000" points="503.3875,-1074 432.3875,-1074 432.3875,-1038 503.3875,-1038 503.3875,-1074"/>
<text text-anchor="middle" x="467.8875" y="-1053.2" font-family="Courier,monospace" font-size="11.00" fill="#000000">Location</text>
</g>
<!-- \\GeoIp2\\Record\\Location&#45;&gt;\\GeoIp2\\Record\\AbstractRecord -->
<g id="edge13" class="edge">
<title>\\GeoIp2\\Record\\Location&#45;&gt;\\GeoIp2\\Record\\AbstractRecord</title>
<path fill="none" stroke="#000000" d="M432.1316,-1051.1729C404.8427,-1047.4889 366.485,-1042.3107 333.7005,-1037.8847"/>
<polygon fill="none" stroke="#000000" points="334.1017,-1034.4072 323.7233,-1036.5378 333.1651,-1041.3443 334.1017,-1034.4072"/>
</g>
<!-- \\GeoIp2\\Record\\AbstractRecord&#45;&gt;\\JsonSerializable -->
<g id="edge14" class="edge">
<title>\\GeoIp2\\Record\\AbstractRecord&#45;&gt;\\JsonSerializable</title>
<path fill="none" stroke="#000000" stroke-dasharray="1,5" d="M243.6464,-1047.1477C207.8922,-1073.9145 141.0031,-1123.9898 101.5553,-1153.5217"/>
<polygon fill="none" stroke="#000000" points="99.0089,-1151.0559 93.1012,-1159.8508 103.204,-1156.6596 99.0089,-1151.0559"/>
</g>
<!-- \\GeoIp2\\Record\\Postal -->
<g id="node15" class="node">
<title>\\GeoIp2\\Record\\Postal</title>
<polygon fill="none" stroke="#000000" points="496.3875,-1020 439.3875,-1020 439.3875,-984 496.3875,-984 496.3875,-1020"/>
<text text-anchor="middle" x="467.8875" y="-999.2" font-family="Courier,monospace" font-size="11.00" fill="#000000">Postal</text>
</g>
<!-- \\GeoIp2\\Record\\Postal&#45;&gt;\\GeoIp2\\Record\\AbstractRecord -->
<g id="edge15" class="edge">
<title>\\GeoIp2\\Record\\Postal&#45;&gt;\\GeoIp2\\Record\\AbstractRecord</title>
<path fill="none" stroke="#000000" d="M439.2324,-1005.8684C411.903,-1009.5579 369.7394,-1015.25 334.0776,-1020.0643"/>
<polygon fill="none" stroke="#000000" points="333.1693,-1016.6551 323.7275,-1021.4616 334.1059,-1023.5922 333.1693,-1016.6551"/>
</g>
<!-- \\GeoIp2\\Record\\Continent -->
<g id="node16" class="node">
<title>\\GeoIp2\\Record\\Continent</title>
<polygon fill="none" stroke="#000000" points="740.3875,-1020 663.3875,-1020 663.3875,-984 740.3875,-984 740.3875,-1020"/>
<text text-anchor="middle" x="701.8875" y="-999.2" font-family="Courier,monospace" font-size="11.00" fill="#000000">Continent</text>
</g>
<!-- \\GeoIp2\\Record\\Continent&#45;&gt;\\GeoIp2\\Record\\AbstractPlaceRecord -->
<g id="edge16" class="edge">
<title>\\GeoIp2\\Record\\Continent&#45;&gt;\\GeoIp2\\Record\\AbstractPlaceRecord</title>
<path fill="none" stroke="#000000" d="M663.3055,-993.5333C647.0835,-989.1755 628.3187,-983.0574 612.3875,-975 576.6931,-956.9471 575.4908,-940.1771 540.3875,-921 537.3487,-919.3399 534.1866,-917.7403 530.9569,-916.2058"/>
<polygon fill="none" stroke="#000000" points="532.2785,-912.9626 521.7223,-912.058 529.4103,-919.3481 532.2785,-912.9626"/>
</g>
<!-- \\GeoIp2\\Record\\MaxMind -->
<g id="node17" class="node">
<title>\\GeoIp2\\Record\\MaxMind</title>
<polygon fill="none" stroke="#000000" points="499.8875,-966 435.8875,-966 435.8875,-930 499.8875,-930 499.8875,-966"/>
<text text-anchor="middle" x="467.8875" y="-945.2" font-family="Courier,monospace" font-size="11.00" fill="#000000">MaxMind</text>
</g>
<!-- \\GeoIp2\\Record\\MaxMind&#45;&gt;\\GeoIp2\\Record\\AbstractRecord -->
<g id="edge17" class="edge">
<title>\\GeoIp2\\Record\\MaxMind&#45;&gt;\\GeoIp2\\Record\\AbstractRecord</title>
<path fill="none" stroke="#000000" d="M435.6498,-959.6593C423.0431,-964.309 408.4919,-969.7878 395.3875,-975 369.9641,-985.1121 341.9442,-996.9067 318.6621,-1006.8889"/>
<polygon fill="none" stroke="#000000" points="317.132,-1003.7369 309.3278,-1010.9025 319.8971,-1010.1677 317.132,-1003.7369"/>
</g>
<!-- \\GeoIp2\\Record\\Country -->
<g id="node18" class="node">
<title>\\GeoIp2\\Record\\Country</title>
<polygon fill="none" stroke="#000000" points="733.8875,-912 669.8875,-912 669.8875,-876 733.8875,-876 733.8875,-912"/>
<text text-anchor="middle" x="701.8875" y="-891.2" font-family="Courier,monospace" font-size="11.00" fill="#000000">Country</text>
</g>
<!-- \\GeoIp2\\Record\\Country&#45;&gt;\\GeoIp2\\Record\\AbstractPlaceRecord -->
<g id="edge18" class="edge">
<title>\\GeoIp2\\Record\\Country&#45;&gt;\\GeoIp2\\Record\\AbstractPlaceRecord</title>
<path fill="none" stroke="#000000" d="M669.8415,-894C639.3139,-894 592.0448,-894 550.9108,-894"/>
<polygon fill="none" stroke="#000000" points="550.874,-890.5001 540.874,-894 550.874,-897.5001 550.874,-890.5001"/>
</g>
<!-- \\GeoIp2\\Record\\AbstractPlaceRecord&#45;&gt;\\GeoIp2\\Record\\AbstractRecord -->
<g id="edge19" class="edge">
<title>\\GeoIp2\\Record\\AbstractPlaceRecord&#45;&gt;\\GeoIp2\\Record\\AbstractRecord</title>
<path fill="none" stroke="#000000" d="M413.097,-912.0575C406.9774,-914.7578 400.9513,-917.7428 395.3875,-921 356.0812,-944.0114 317.0296,-979.4208 292.7055,-1003.3648"/>
<polygon fill="none" stroke="#000000" points="289.9535,-1001.1662 285.3439,-1010.7057 294.8963,-1006.1229 289.9535,-1001.1662"/>
</g>
<!-- \\GeoIp2\\Record\\Subdivision -->
<g id="node20" class="node">
<title>\\GeoIp2\\Record\\Subdivision</title>
<polygon fill="none" stroke="#000000" points="747.3875,-966 656.3875,-966 656.3875,-930 747.3875,-930 747.3875,-966"/>
<text text-anchor="middle" x="701.8875" y="-945.2" font-family="Courier,monospace" font-size="11.00" fill="#000000">Subdivision</text>
</g>
<!-- \\GeoIp2\\Record\\Subdivision&#45;&gt;\\GeoIp2\\Record\\AbstractPlaceRecord -->
<g id="edge20" class="edge">
<title>\\GeoIp2\\Record\\Subdivision&#45;&gt;\\GeoIp2\\Record\\AbstractPlaceRecord</title>
<path fill="none" stroke="#000000" d="M656.2145,-937.4601C626.1856,-930.5303 586.02,-921.2613 550.4967,-913.0636"/>
<polygon fill="none" stroke="#000000" points="551.1436,-909.621 540.6127,-910.7827 549.5695,-916.4418 551.1436,-909.621"/>
</g>
<!-- \\GeoIp2\\Record\\RepresentedCountry -->
<g id="node21" class="node">
<title>\\GeoIp2\\Record\\RepresentedCountry</title>
<polygon fill="none" stroke="#000000" points="1021.8875,-912 883.8875,-912 883.8875,-876 1021.8875,-876 1021.8875,-912"/>
<text text-anchor="middle" x="952.8875" y="-891.2" font-family="Courier,monospace" font-size="11.00" fill="#000000">RepresentedCountry</text>
</g>
<!-- \\GeoIp2\\Record\\RepresentedCountry&#45;&gt;\\GeoIp2\\Record\\Country -->
<g id="edge21" class="edge">
<title>\\GeoIp2\\Record\\RepresentedCountry&#45;&gt;\\GeoIp2\\Record\\Country</title>
<path fill="none" stroke="#000000" d="M883.6363,-894C838.9378,-894 782.2365,-894 744.1547,-894"/>
<polygon fill="none" stroke="#000000" points="743.9328,-890.5001 733.9328,-894 743.9328,-897.5001 743.9328,-890.5001"/>
</g>
<!-- \\GeoIp2\\WebService\\Client -->
<g id="node22" class="node">
<title>\\GeoIp2\\WebService\\Client</title>
<polygon fill="none" stroke="#000000" points="981.3875,-590 924.3875,-590 924.3875,-554 981.3875,-554 981.3875,-590"/>
<text text-anchor="middle" x="952.8875" y="-569.2" font-family="Courier,monospace" font-size="11.00" fill="#000000">Client</text>
</g>
<!-- \\GeoIp2\\ProviderInterface -->
<g id="node31" class="node">
<title>\\GeoIp2\\ProviderInterface</title>
<polygon fill="none" stroke="#000000" points="767.3875,-550 636.3875,-550 636.3875,-514 767.3875,-514 767.3875,-550"/>
<text text-anchor="middle" x="701.8875" y="-529.2" font-family="Courier,monospace" font-size="11.00" fill="#000000">ProviderInterface</text>
</g>
<!-- \\GeoIp2\\WebService\\Client&#45;&gt;\\GeoIp2\\ProviderInterface -->
<g id="edge22" class="edge">
<title>\\GeoIp2\\WebService\\Client&#45;&gt;\\GeoIp2\\ProviderInterface</title>
<path fill="none" stroke="#000000" stroke-dasharray="1,5" d="M924.0947,-567.4115C888.6165,-561.7576 826.9758,-551.9344 777.6034,-544.0663"/>
<polygon fill="none" stroke="#000000" points="778.0126,-540.5874 767.5863,-542.4699 776.9109,-547.5002 778.0126,-540.5874"/>
</g>
<!-- \\GeoIp2\\Exception\\InvalidRequestException -->
<g id="node23" class="node">
<title>\\GeoIp2\\Exception\\InvalidRequestException</title>
<polygon fill="none" stroke="#000000" points="1038.8875,-832 866.8875,-832 866.8875,-796 1038.8875,-796 1038.8875,-832"/>
<text text-anchor="middle" x="952.8875" y="-811.2" font-family="Courier,monospace" font-size="11.00" fill="#000000">InvalidRequestException</text>
</g>
<!-- \\GeoIp2\\Exception\\HttpException -->
<g id="node26" class="node">
<title>\\GeoIp2\\Exception\\HttpException</title>
<polygon fill="none" stroke="#000000" points="753.8875,-832 649.8875,-832 649.8875,-796 753.8875,-796 753.8875,-832"/>
<text text-anchor="middle" x="701.8875" y="-811.2" font-family="Courier,monospace" font-size="11.00" fill="#000000">HttpException</text>
</g>
<!-- \\GeoIp2\\Exception\\InvalidRequestException&#45;&gt;\\GeoIp2\\Exception\\HttpException -->
<g id="edge23" class="edge">
<title>\\GeoIp2\\Exception\\InvalidRequestException&#45;&gt;\\GeoIp2\\Exception\\HttpException</title>
<path fill="none" stroke="#000000" d="M866.8587,-814C833.1988,-814 795.3213,-814 764.3575,-814"/>
<polygon fill="none" stroke="#000000" points="764.1379,-810.5001 754.1379,-814 764.1378,-817.5001 764.1379,-810.5001"/>
</g>
<!-- \\GeoIp2\\Exception\\AddressNotFoundException -->
<g id="node24" class="node">
<title>\\GeoIp2\\Exception\\AddressNotFoundException</title>
<polygon fill="none" stroke="#000000" points="791.3875,-778 612.3875,-778 612.3875,-742 791.3875,-742 791.3875,-778"/>
<text text-anchor="middle" x="701.8875" y="-757.2" font-family="Courier,monospace" font-size="11.00" fill="#000000">AddressNotFoundException</text>
</g>
<!-- \\GeoIp2\\Exception\\GeoIp2Exception -->
<g id="node28" class="node">
<title>\\GeoIp2\\Exception\\GeoIp2Exception</title>
<polygon fill="none" stroke="#000000" points="526.8875,-724 408.8875,-724 408.8875,-688 526.8875,-688 526.8875,-724"/>
<text text-anchor="middle" x="467.8875" y="-703.2" font-family="Courier,monospace" font-size="11.00" fill="#000000">GeoIp2Exception</text>
</g>
<!-- \\GeoIp2\\Exception\\AddressNotFoundException&#45;&gt;\\GeoIp2\\Exception\\GeoIp2Exception -->
<g id="edge24" class="edge">
<title>\\GeoIp2\\Exception\\AddressNotFoundException&#45;&gt;\\GeoIp2\\Exception\\GeoIp2Exception</title>
<path fill="none" stroke="#000000" d="M623.6436,-741.9437C595.5993,-735.4719 564.2059,-728.2273 536.9912,-721.947"/>
<polygon fill="none" stroke="#000000" points="537.6987,-718.5184 527.1678,-719.6801 536.1247,-725.3391 537.6987,-718.5184"/>
</g>
<!-- \\GeoIp2\\Exception\\OutOfQueriesException -->
<g id="node25" class="node">
<title>\\GeoIp2\\Exception\\OutOfQueriesException</title>
<polygon fill="none" stroke="#000000" points="780.8875,-724 622.8875,-724 622.8875,-688 780.8875,-688 780.8875,-724"/>
<text text-anchor="middle" x="701.8875" y="-703.2" font-family="Courier,monospace" font-size="11.00" fill="#000000">OutOfQueriesException</text>
</g>
<!-- \\GeoIp2\\Exception\\OutOfQueriesException&#45;&gt;\\GeoIp2\\Exception\\GeoIp2Exception -->
<g id="edge25" class="edge">
<title>\\GeoIp2\\Exception\\OutOfQueriesException&#45;&gt;\\GeoIp2\\Exception\\GeoIp2Exception</title>
<path fill="none" stroke="#000000" d="M622.6658,-706C594.9196,-706 563.9981,-706 537.1321,-706"/>
<polygon fill="none" stroke="#000000" points="537.049,-702.5001 527.049,-706 537.049,-709.5001 537.049,-702.5001"/>
</g>
<!-- \\GeoIp2\\Exception\\HttpException&#45;&gt;\\GeoIp2\\Exception\\GeoIp2Exception -->
<g id="edge26" class="edge">
<title>\\GeoIp2\\Exception\\HttpException&#45;&gt;\\GeoIp2\\Exception\\GeoIp2Exception</title>
<path fill="none" stroke="#000000" d="M649.6187,-800.3203C637.2274,-796.5074 624.1872,-792.016 612.3875,-787 574.1755,-770.7562 533.1048,-747.0717 504.5534,-729.5055"/>
<polygon fill="none" stroke="#000000" points="506.0846,-726.3365 495.7429,-724.0344 502.3918,-732.2832 506.0846,-726.3365"/>
</g>
<!-- \\GeoIp2\\Exception\\AuthenticationException -->
<g id="node27" class="node">
<title>\\GeoIp2\\Exception\\AuthenticationException</title>
<polygon fill="none" stroke="#000000" points="787.8875,-670 615.8875,-670 615.8875,-634 787.8875,-634 787.8875,-670"/>
<text text-anchor="middle" x="701.8875" y="-649.2" font-family="Courier,monospace" font-size="11.00" fill="#000000">AuthenticationException</text>
</g>
<!-- \\GeoIp2\\Exception\\AuthenticationException&#45;&gt;\\GeoIp2\\Exception\\GeoIp2Exception -->
<g id="edge27" class="edge">
<title>\\GeoIp2\\Exception\\AuthenticationException&#45;&gt;\\GeoIp2\\Exception\\GeoIp2Exception</title>
<path fill="none" stroke="#000000" d="M623.6436,-670.0563C595.5993,-676.5281 564.2059,-683.7727 536.9912,-690.053"/>
<polygon fill="none" stroke="#000000" points="536.1247,-686.6609 527.1678,-692.3199 537.6987,-693.4816 536.1247,-686.6609"/>
</g>
<!-- \\Exception -->
<g id="node38" class="node">
<title>\\Exception</title>
<ellipse fill="none" stroke="#000000" cx="267.8875" cy="-18" rx="48.9926" ry="18"/>
<text text-anchor="middle" x="267.8875" y="-14.3" font-family="Times,serif" font-size="14.00" fill="#c0c0c0">\Exception</text>
</g>
<!-- \\GeoIp2\\Exception\\GeoIp2Exception&#45;&gt;\\Exception -->
<g id="edge28" class="edge">
<title>\\GeoIp2\\Exception\\GeoIp2Exception&#45;&gt;\\Exception</title>
<path fill="none" stroke="#000000" d="M462.6408,-687.9513C435.3275,-593.9935 309.3897,-160.7676 276.0204,-45.9772"/>
<polygon fill="none" stroke="#000000" points="279.3241,-44.803 273.1717,-36.1775 272.6023,-46.757 279.3241,-44.803"/>
</g>
<!-- \\GeoIp2\\Database\\Reader -->
<g id="node29" class="node">
<title>\\GeoIp2\\Database\\Reader</title>
<polygon fill="none" stroke="#000000" points="981.3875,-510 924.3875,-510 924.3875,-474 981.3875,-474 981.3875,-510"/>
<text text-anchor="middle" x="952.8875" y="-489.2" font-family="Courier,monospace" font-size="11.00" fill="#000000">Reader</text>
</g>
<!-- \\GeoIp2\\Database\\Reader&#45;&gt;\\GeoIp2\\ProviderInterface -->
<g id="edge29" class="edge">
<title>\\GeoIp2\\Database\\Reader&#45;&gt;\\GeoIp2\\ProviderInterface</title>
<path fill="none" stroke="#000000" stroke-dasharray="1,5" d="M924.0947,-496.5885C888.6165,-502.2424 826.9758,-512.0656 777.6034,-519.9337"/>
<polygon fill="none" stroke="#000000" points="776.9109,-516.4998 767.5863,-521.5301 778.0126,-523.4126 776.9109,-516.4998"/>
</g>
<!-- \\GeoIp2\\Util -->
<g id="node30" class="node">
<title>\\GeoIp2\\Util</title>
<polygon fill="none" stroke="#000000" points="979.8875,-456 925.8875,-456 925.8875,-420 979.8875,-420 979.8875,-456"/>
<text text-anchor="middle" x="952.8875" y="-435.2" font-family="Courier,monospace" font-size="11.00" fill="#000000">Util</text>
</g>
<!-- \\MaxMind\\Db\\Reader\\InvalidDatabaseException -->
<g id="node32" class="node">
<title>\\MaxMind\\Db\\Reader\\InvalidDatabaseException</title>
<polygon fill="none" stroke="#000000" points="1042.3875,-320 863.3875,-320 863.3875,-284 1042.3875,-284 1042.3875,-320"/>
<text text-anchor="middle" x="952.8875" y="-299.2" font-family="Courier,monospace" font-size="11.00" fill="#000000">InvalidDatabaseException</text>
</g>
<!-- \\MaxMind\\Db\\Reader\\InvalidDatabaseException&#45;&gt;\\Exception -->
<g id="edge30" class="edge">
<title>\\MaxMind\\Db\\Reader\\InvalidDatabaseException&#45;&gt;\\Exception</title>
<path fill="none" stroke="#000000" d="M869.0043,-283.9442C858.9433,-281.2213 848.8789,-278.2306 839.3875,-275 630.7553,-203.9874 394.4412,-84.4291 304.9029,-37.625"/>
<polygon fill="none" stroke="#000000" points="306.4379,-34.4779 295.956,-32.9346 303.1877,-40.6776 306.4379,-34.4779"/>
</g>
<!-- \\MaxMind\\Db\\Reader\\Util -->
<g id="node33" class="node">
<title>\\MaxMind\\Db\\Reader\\Util</title>
<polygon fill="none" stroke="#000000" points="979.8875,-266 925.8875,-266 925.8875,-230 979.8875,-230 979.8875,-266"/>
<text text-anchor="middle" x="952.8875" y="-245.2" font-family="Courier,monospace" font-size="11.00" fill="#000000">Util</text>
</g>
<!-- \\MaxMind\\Db\\Reader\\Metadata -->
<g id="node34" class="node">
<title>\\MaxMind\\Db\\Reader\\Metadata</title>
<polygon fill="none" stroke="#000000" points="988.3875,-212 917.3875,-212 917.3875,-176 988.3875,-176 988.3875,-212"/>
<text text-anchor="middle" x="952.8875" y="-191.2" font-family="Courier,monospace" font-size="11.00" fill="#000000">Metadata</text>
</g>
<!-- \\MaxMind\\Db\\Reader\\Decoder -->
<g id="node35" class="node">
<title>\\MaxMind\\Db\\Reader\\Decoder</title>
<polygon fill="none" stroke="#000000" points="984.8875,-158 920.8875,-158 920.8875,-122 984.8875,-122 984.8875,-158"/>
<text text-anchor="middle" x="952.8875" y="-137.2" font-family="Courier,monospace" font-size="11.00" fill="#000000">Decoder</text>
</g>
<!-- \\MaxMind\\Db\\Reader -->
<g id="node36" class="node">
<title>\\MaxMind\\Db\\Reader</title>
<polygon fill="none" stroke="#000000" points="981.3875,-104 924.3875,-104 924.3875,-68 981.3875,-68 981.3875,-104"/>
<text text-anchor="middle" x="952.8875" y="-83.2" font-family="Courier,monospace" font-size="11.00" fill="#000000">Reader</text>
</g>
</g>
</svg>
